<svg width="60" height="60" viewBox="0 0 60 60" fill="none" xmlns="http://www.w3.org/2000/svg">
<path d="M30.0001 7.5C28.6251 7.5 27.5001 8.625 27.5001 10V30C27.5001 31.375 28.6251 32.5 30.0001 32.5C31.3751 32.5 32.5001 31.375 32.5001 30V10C32.5001 8.625 31.3751 7.5 30.0001 7.5ZM42.8501 14.65C41.8751 15.625 41.9001 17.15 42.8251 18.125C45.6501 21.125 47.4001 25.125 47.5001 29.55C47.7251 39.125 39.8001 47.375 30.2251 47.475C20.4501 47.625 12.5001 39.75 12.5001 30C12.5001 25.4 14.2751 21.225 17.1751 18.1C18.1001 17.125 18.1001 15.6 17.1501 14.65C16.1501 13.65 14.5251 13.675 13.5751 14.7C9.95007 18.55 7.67507 23.675 7.50007 29.35C7.15007 41.55 17.0751 52.1 29.2751 52.475C42.0251 52.875 52.5001 42.65 52.5001 29.975C52.5001 24.05 50.2001 18.7 46.4501 14.7C45.5001 13.675 43.8501 13.65 42.8501 14.65Z" fill="#6C2B91"/>
</svg>
