<svg width="60" height="60" viewBox="0 0 60 60" fill="none" xmlns="http://www.w3.org/2000/svg">
<path d="M48.575 32.45C48.675 31.65 48.75 30.85 48.75 30C48.75 29.15 48.675 28.35 48.575 27.55L53.85 23.425C54.325 23.05 54.45 22.375 54.15 21.825L49.15 13.175C48.925 12.775 48.5 12.55 48.05 12.55C47.9 12.55 47.75 12.575 47.625 12.625L41.4 15.125C40.1 14.125 38.7 13.3 37.175 12.675L36.225 6.05C36.15 5.45 35.625 5 35 5H25C24.375 5 23.85 5.45 23.775 6.05L22.825 12.675C21.3 13.3 19.9 14.15 18.6 15.125L12.375 12.625C12.225 12.575 12.075 12.55 11.925 12.55C11.5 12.55 11.075 12.775 10.85 13.175L5.84996 21.825C5.52496 22.375 5.67496 23.05 6.14996 23.425L11.425 27.55C11.325 28.35 11.25 29.175 11.25 30C11.25 30.825 11.325 31.65 11.425 32.45L6.14996 36.575C5.67496 36.95 5.54996 37.625 5.84996 38.175L10.85 46.825C11.075 47.225 11.5 47.45 11.95 47.45C12.1 47.45 12.25 47.425 12.375 47.375L18.6 44.875C19.9 45.875 21.3 46.7 22.825 47.325L23.775 53.95C23.85 54.55 24.375 55 25 55H35C35.625 55 36.15 54.55 36.225 53.95L37.175 47.325C38.7 46.7 40.1 45.85 41.4 44.875L47.625 47.375C47.775 47.425 47.925 47.45 48.075 47.45C48.5 47.45 48.925 47.225 49.15 46.825L54.15 38.175C54.45 37.625 54.325 36.95 53.85 36.575L48.575 32.45V32.45ZM43.625 28.175C43.725 28.95 43.75 29.475 43.75 30C43.75 30.525 43.7 31.075 43.625 31.825L43.275 34.65L45.5 36.4L48.2 38.5L46.45 41.525L43.275 40.25L40.675 39.2L38.425 40.9C37.35 41.7 36.325 42.3 35.3 42.725L32.65 43.8L32.25 46.625L31.75 50H28.25L27.775 46.625L27.375 43.8L24.725 42.725C23.65 42.275 22.65 41.7 21.65 40.95L19.375 39.2L16.725 40.275L13.55 41.55L11.8 38.525L14.5 36.425L16.725 34.675L16.375 31.85C16.3 31.075 16.25 30.5 16.25 30C16.25 29.5 16.3 28.925 16.375 28.175L16.725 25.35L14.5 23.6L11.8 21.5L13.55 18.475L16.725 19.75L19.325 20.8L21.575 19.1C22.65 18.3 23.675 17.7 24.7 17.275L27.35 16.2L27.75 13.375L28.25 10H31.725L32.2 13.375L32.6 16.2L35.25 17.275C36.325 17.725 37.325 18.3 38.325 19.05L40.6 20.8L43.25 19.725L46.425 18.45L48.175 21.475L45.5 23.6L43.275 25.35L43.625 28.175ZM30 20C24.475 20 20 24.475 20 30C20 35.525 24.475 40 30 40C35.525 40 40 35.525 40 30C40 24.475 35.525 20 30 20ZM30 35C27.25 35 25 32.75 25 30C25 27.25 27.25 25 30 25C32.75 25 35 27.25 35 30C35 32.75 32.75 35 30 35Z" fill="#6C2B91"/>
</svg>
