<?xml version="1.0" standalone="no"?>
<!DOCTYPE svg PUBLIC "-//W3C//DTD SVG 20010904//EN"
 "http://www.w3.org/TR/2001/REC-SVG-20010904/DTD/svg10.dtd">
<svg version="1.0" xmlns="http://www.w3.org/2000/svg"
 width="80.000000pt" height="80.000000pt" viewBox="0 0 80.000000 80.000000"
 preserveAspectRatio="xMidYMid meet">
<metadata>
Created by potrace 1.14, written by Peter Selinger 2001-2017
</metadata>
<g transform="translate(0.000000,80.000000) scale(0.100000,-0.100000)"
fill="#000000" stroke="none">
<path d="M0 400 l0 -400 400 0 400 0 0 400 0 400 -400 0 -400 0 0 -400z m688
288 c17 -17 17 -559 0 -576 -17 -17 -559 -17 -576 0 -17 17 -17 559 0 576 17
17 559 17 576 0z"/>
<path d="M133 673 c-10 -3 -13 -68 -13 -273 0 -235 2 -269 16 -274 9 -3 129
-6 268 -6 183 0 255 3 264 12 17 17 17 519 0 536 -9 9 -81 12 -267 11 -141 0
-262 -3 -268 -6z m212 -73 c0 -11 -16 -16 -60 -20 -46 -4 -61 -9 -63 -22 -3
-14 6 -17 45 -20 35 -2 49 -7 51 -20 3 -14 -6 -17 -45 -20 -45 -3 -48 -5 -51
-33 -5 -50 -10 -59 -27 -45 -11 9 -15 35 -15 100 0 47 3 90 7 94 4 4 41 5 83
4 59 -2 75 -6 75 -18z m315 6 c0 -8 -4 -17 -9 -21 -6 -3 -6 -17 1 -35 13 -39
-14 -97 -59 -125 -18 -11 -32 -22 -32 -25 0 -3 14 -14 32 -25 44 -28 72 -86
59 -124 -7 -19 -7 -32 0 -39 24 -24 -6 -32 -118 -32 -107 0 -114 1 -114 20 0
11 3 20 8 20 4 0 6 21 4 48 -4 53 21 96 64 112 29 11 31 26 4 35 -10 3 -31 20
-45 37 -22 26 -26 39 -23 80 1 26 0 48 -4 48 -5 0 -8 9 -8 20 0 19 7 20 120
20 98 0 120 -3 120 -14z m-438 -283 l38 -37 40 39 c52 51 62 41 58 -61 -2 -62
-6 -79 -18 -79 -11 0 -16 14 -18 54 l-3 54 -28 -27 -28 -27 -31 26 -31 26 -3
-53 c-2 -39 -7 -53 -18 -53 -12 0 -16 16 -18 74 -3 74 1 101 15 101 4 0 24
-17 45 -37z"/>
<path d="M445 557 c-4 -14 -5 -38 -3 -53 l3 -29 95 0 95 0 0 50 0 50 -92 3
c-90 3 -93 2 -98 -21z"/>
<path d="M491 366 c-37 -20 -67 -86 -40 -86 17 0 79 66 79 84 0 19 -7 20 -39
2z"/>
<path d="M550 375 c0 -18 33 -64 55 -79 32 -21 40 -16 31 19 -7 29 -86 84 -86
60z"/>
</g>
</svg>
